<svg xmlns="http://www.w3.org/2000/svg" version="1.1" xmlns:xlink="http://www.w3.org/1999/xlink" xmlns:svgjs="http://svgjs.dev/svgjs" width="2000" height="202" viewBox="0 0 2000 202"><g transform="matrix(1,0,0,1,-1.2120939928385042,1.0424280139388173)"><svg viewBox="0 0 396 40" data-background-color="#333366" preserveAspectRatio="xMidYMid meet" height="202" width="2000" xmlns="http://www.w3.org/2000/svg" xmlns:xlink="http://www.w3.org/1999/xlink"><g id="tight-bounds" transform="matrix(1,0,0,1,0.23999568211738165,-0.20642138889877515)"><svg viewBox="0 0 395.5199999999999 40.4128409824568" height="40.4128409824568" width="395.5199999999999"><g><svg viewBox="0 0 623.705039538795 63.72798488783944" height="40.4128409824568" width="395.5199999999999"><g><rect width="4.15850611032255" height="46.34343329397874" x="213.14039177841337" y="8.69227579693035" fill="#ffffff" opacity="1" stroke-width="0" stroke="transparent" fill-opacity="1" class="rect-o-0" data-fill-palette-color="primary" rx="1%" id="o-0" data-palette-color="#ffffff"></rect></g><g transform="matrix(1,0,0,1,228.18503953879497,8.807557969303428)"><svg viewBox="0 0 395.52 46.112868949232585" height="46.112868949232585" width="395.52"><g id="textblocktransform"><svg viewBox="0 0 395.52 46.112868949232585" height="46.112868949232585" width="395.52" id="textblock"><g><svg viewBox="0 0 395.52 46.112868949232585" height="46.112868949232585" width="395.52"><g transform="matrix(1,0,0,1,0,0)"><svg width="395.52" viewBox="-1.399999976158142 -39 346.3299865722656 39.5" height="46.112868949232585" data-palette-color="#ffffff"><g class="wordmark-text-0" data-fill-palette-color="primary" id="text-0"><path d="M38.05-29.85L44.35-9.7 51.1-29Q52.3-32.35 52.3-34L52.3-34Q52.3-35.55 51.23-36.02 50.15-36.5 47.9-36.5L47.9-36.5 47.9-38.5 62.1-38.5 62.1-36.5Q60.2-36.5 58.68-35.58 57.15-34.65 56.35-32.45L56.35-32.45 44.3 0.5 39.85 0.5 31.15-25.9 21.25 0.5 17.1 0.5 6.5-28.7Q5.55-31.25 4.75-32.8 3.95-34.35 3.05-35.15 2.15-35.95 1.1-36.2 0.05-36.45-1.4-36.45L-1.4-36.45-1.4-38.5 17.5-38.5 17.5-36.45Q14.95-36.45 14-35.98 13.05-35.5 13.05-34.4L13.05-34.4Q13.05-34 13.1-33.63 13.15-33.25 13.3-32.77 13.45-32.3 13.68-31.6 13.9-30.9 14.3-29.85L14.3-29.85 21.3-9.7 29.4-31.8Q28.9-33.15 28.4-34 27.9-34.85 27.23-35.35 26.55-35.85 25.7-36.08 24.85-36.3 23.65-36.45L23.65-36.45 23.65-38.5 41.3-38.5 41.3-36.45Q39.2-36.45 38.2-35.93 37.2-35.4 37.2-33.9L37.2-33.9Q37.2-33.15 37.43-32.15 37.65-31.15 38.05-29.85L38.05-29.85ZM81-2L81 0 63.15 0 63.15-2Q64.85-2.05 65.87-2.33 66.9-2.6 67.45-3.35 68-4.1 68.2-5.48 68.4-6.85 68.4-9.2L68.4-9.2 68.4-29.3Q68.4-31.4 68.22-32.77 68.05-34.15 67.55-34.95 67.05-35.75 66.12-36.08 65.2-36.4 63.65-36.5L63.65-36.5 63.65-38.5 80.5-38.5 80.5-36.5Q78.95-36.4 78.02-36.08 77.1-35.75 76.6-34.95 76.1-34.15 75.92-32.77 75.75-31.4 75.75-29.3L75.75-29.3 75.75-9.2Q75.75-6.85 75.92-5.48 76.1-4.1 76.67-3.35 77.25-2.6 78.27-2.33 79.3-2.05 81-2L81-2ZM117.55-28.85L117.55-28.85Q117.55-24.7 115.15-21.9 112.75-19.1 107.5-18.15L107.5-18.15 119.1-4.85Q120.3-3.45 121.95-2.73 123.6-2 125.3-2L125.3-2 125.3 0 113.45 0 101.05-15.2Q99.8-16.7 98.87-17.23 97.95-17.75 97.15-17.75L97.15-17.75 97.15-7.95Q97.15-6.1 97.4-4.93 97.65-3.75 98.4-3.1 99.15-2.45 100.57-2.23 102-2 104.4-2L104.4-2 104.4 0 84.55 0 84.55-2Q86.2-2 87.22-2.23 88.25-2.45 88.82-3.08 89.4-3.7 89.6-4.83 89.8-5.95 89.8-7.7L89.8-7.7 89.8-30.8Q89.8-32.55 89.65-33.63 89.5-34.7 89-35.33 88.5-35.95 87.57-36.18 86.65-36.4 85.1-36.5L85.1-36.5 85.1-38.5 102.4-38.5Q109.65-38.5 113.6-35.95 117.55-33.4 117.55-28.85ZM97.15-34.85L97.15-20.75 100.4-20.75Q105.1-20.75 107.42-22.58 109.75-24.4 109.75-28.6L109.75-28.6Q109.75-31.8 107.8-33.75 105.85-35.7 102.4-35.7L102.4-35.7 98.05-35.7Q97.15-35.7 97.15-34.85L97.15-34.85ZM149.74-8.65L148.59-11.65 134.44-11.65Q132.09-6.35 132.09-4.3L132.09-4.3Q132.09-2.8 133.22-2.4 134.34-2 136.59-2L136.59-2 136.59 0 122.89 0 122.89-2Q124.09-2.15 124.97-2.4 125.84-2.65 126.52-3.1 127.19-3.55 127.69-4.28 128.19-5 128.64-6.05L128.64-6.05 141.79-39 145.49-39 157.44-9.8Q158.49-7.25 159.22-5.8 159.94-4.35 160.77-3.58 161.59-2.8 162.67-2.5 163.74-2.2 165.44-2.05L165.44-2.05 165.44 0 146.54 0 146.54-2.05Q148.94-2.15 149.99-2.55 151.04-2.95 151.04-4.15L151.04-4.15Q151.04-4.85 150.69-5.95 150.34-7.05 149.74-8.65L149.74-8.65ZM141.54-29.8L135.59-14.65 147.49-14.65 141.74-29.8 141.54-29.8ZM204.24-38.5L204.74-27.5 202.59-27.5Q202.44-29.95 201.87-31.58 201.29-33.2 200.24-34.18 199.19-35.15 197.69-35.52 196.19-35.9 194.19-35.9L194.19-35.9Q192.24-35.9 191.06-35.83 189.89-35.75 189.27-35.58 188.64-35.4 188.44-35.1 188.24-34.8 188.24-34.35L188.24-34.35 188.24-8.15Q188.24-6.55 188.47-5.4 188.69-4.25 189.39-3.53 190.09-2.8 191.44-2.43 192.79-2.05 194.99-2L194.99-2 194.99 0 174.04 0 174.04-2Q176.29-2.05 177.64-2.43 178.99-2.8 179.72-3.53 180.44-4.25 180.67-5.4 180.89-6.55 180.89-8.15L180.89-8.15 180.89-34.35Q180.89-34.8 180.72-35.1 180.54-35.4 179.99-35.58 179.44-35.75 178.42-35.83 177.39-35.9 175.74-35.9L175.74-35.9Q173.94-35.9 172.29-35.73 170.64-35.55 169.39-34.73 168.14-33.9 167.37-32.23 166.59-30.55 166.54-27.5L166.54-27.5 164.59-27.5 165.09-38.5 204.24-38.5ZM231.54-8.65L230.39-11.65 216.24-11.65Q213.89-6.35 213.89-4.3L213.89-4.3Q213.89-2.8 215.01-2.4 216.14-2 218.39-2L218.39-2 218.39 0 204.69 0 204.69-2Q205.89-2.15 206.76-2.4 207.64-2.65 208.31-3.1 208.99-3.55 209.49-4.28 209.99-5 210.44-6.05L210.44-6.05 223.59-39 227.29-39 239.24-9.8Q240.29-7.25 241.01-5.8 241.74-4.35 242.56-3.58 243.39-2.8 244.46-2.5 245.54-2.2 247.24-2.05L247.24-2.05 247.24 0 228.34 0 228.34-2.05Q230.74-2.15 231.79-2.55 232.84-2.95 232.84-4.15L232.84-4.15Q232.84-4.85 232.49-5.95 232.14-7.05 231.54-8.65L231.54-8.65ZM223.34-29.8L217.39-14.65 229.29-14.65 223.54-29.8 223.34-29.8ZM274.64-9.35L274.84-9.35 286.39-38.5 300.99-38.5 300.99-36.5Q299.34-36.5 298.31-36.18 297.29-35.85 296.74-35 296.19-34.15 296.01-32.68 295.84-31.2 295.84-28.95L295.84-28.95 295.84-9.55Q295.84-7.05 296.04-5.6 296.24-4.15 296.84-3.35 297.44-2.55 298.56-2.3 299.69-2.05 301.54-2L301.54-2 301.54 0 282.74 0 282.74-2Q284.59-2.05 285.71-2.33 286.84-2.6 287.46-3.35 288.09-4.1 288.29-5.48 288.49-6.85 288.49-9.2L288.49-9.2 288.49-32.6 288.24-32.6 274.79 0.5 271.09 0.5 257.19-32.6 256.99-32.6 256.99-9.55Q256.99-7.05 257.19-5.6 257.39-4.15 257.99-3.35 258.59-2.55 259.71-2.3 260.84-2.05 262.69-2L262.69-2 262.69 0 247.29 0 247.29-2Q249.14-2.05 250.29-2.33 251.44-2.6 252.06-3.35 252.69-4.1 252.89-5.48 253.09-6.85 253.09-9.2L253.09-9.2 253.09-29.3Q253.09-31.4 252.89-32.8 252.69-34.2 252.14-35.02 251.59-35.85 250.56-36.18 249.54-36.5 247.84-36.5L247.84-36.5 247.84-38.5 262.99-38.5 274.64-9.35ZM329.23-8.65L328.08-11.65 313.93-11.65Q311.58-6.35 311.58-4.3L311.58-4.3Q311.58-2.8 312.71-2.4 313.83-2 316.08-2L316.08-2 316.08 0 302.38 0 302.38-2Q303.58-2.15 304.46-2.4 305.33-2.65 306.01-3.1 306.68-3.55 307.18-4.28 307.68-5 308.13-6.05L308.13-6.05 321.28-39 324.98-39 336.93-9.8Q337.98-7.25 338.71-5.8 339.43-4.35 340.26-3.58 341.08-2.8 342.16-2.5 343.23-2.2 344.93-2.05L344.93-2.05 344.93 0 326.03 0 326.03-2.05Q328.43-2.15 329.48-2.55 330.53-2.95 330.53-4.15L330.53-4.15Q330.53-4.85 330.18-5.95 329.83-7.05 329.23-8.65L329.23-8.65ZM321.03-29.8L315.08-14.65 326.98-14.65 321.23-29.8 321.03-29.8Z" fill="#ffffff" data-fill-palette-color="primary"></path></g></svg></g></svg></g></svg></g></svg></g><g><svg viewBox="0 0 202.25425012835433 63.72798488783944" height="63.72798488783944" width="202.25425012835433"><g><svg xmlns="http://www.w3.org/2000/svg" xmlns:xlink="http://www.w3.org/1999/xlink" version="1.1" x="0" y="0" viewBox="10.825594902038574 38.09199905395508 80.66622924804688 25.41699981689453" enable-background="new 0 0 100 100" xml:space="preserve" height="63.72798488783944" width="202.25425012835433" class="icon-icon-0" data-fill-palette-color="accent" id="icon-0"><path d="M31.376 42.592c-7.333 0-11.834 2.75-11.834 4.625s1.584 3.625 9.667 3.625 24.5-10.25 41.25-10.25c17.083 0.002 17.083 8.583 17.083 8.583s-2.254-1.958-13.583-1.958c-16.917 0-32.667 9.125-43.874 9.125-11.209 0-14.108-5.008-14.108-8.925 0-3.375 4.399-9.325 15.232-9.325s12.667 6.583 12.667 6.583S38.709 42.592 31.376 42.592zM10.876 48.759c0 0-2.167 14.75 21.916 14.75 24.084 0 33.251-10.167 51.918-10.167 5.654 0.12 6.666 2.792 6.666 2.792s2.25-7.375-13.084-7.375c-15.332 0-33.308 9.917-47.832 9.917C15.935 58.676 10.876 48.759 10.876 48.759z" fill="#ffffff" data-fill-palette-color="accent"></path></svg></g></svg></g></svg></g><defs></defs></svg><rect width="395.5199999999999" height="40.4128409824568" fill="none" stroke="none" visibility="hidden"></rect></g></svg></g></svg>